<?xml version="1.0" encoding="UTF-8" standalone="no"?>
<!-- Created with Inkscape (http://www.inkscape.org/) -->

<svg
   width="500mm"
   height="500mm"
   viewBox="0 0 500 500"
   version="1.1"
   id="svg1"
   inkscape:version="1.3 (0e150ed6c4, 2023-07-21)"
   sodipodi:docname="trk.svg"
   xmlns:inkscape="http://www.inkscape.org/namespaces/inkscape"
   xmlns:sodipodi="http://sodipodi.sourceforge.net/DTD/sodipodi-0.dtd"
   xmlns="http://www.w3.org/2000/svg"
   xmlns:svg="http://www.w3.org/2000/svg">
  <sodipodi:namedview
     id="namedview1"
     pagecolor="#ffffff"
     bordercolor="#000000"
     borderopacity="0.25"
     inkscape:showpageshadow="2"
     inkscape:pageopacity="0.0"
     inkscape:pagecheckerboard="0"
     inkscape:deskcolor="#d1d1d1"
     inkscape:document-units="mm"
     inkscape:zoom="0.36213173"
     inkscape:cx="793.90999"
     inkscape:cy="810.47854"
     inkscape:window-width="1920"
     inkscape:window-height="1009"
     inkscape:window-x="-8"
     inkscape:window-y="-8"
     inkscape:window-maximized="1"
     inkscape:current-layer="layer1" />
  <defs
     id="defs1" />
  <g
     inkscape:label="Capa 1"
     inkscape:groupmode="layer"
     id="layer1">
    <path
       style="display:inline;fill:#898989;fill-opacity:1;stroke:#5f5f5f;stroke-width:1.77939;stroke-dasharray:none;stroke-opacity:1"
       d="m 406.07251,377.62186 3.81306,0.34063 1.11215,-3.9183 2.0654,3.40721 5.24298,-2.21467 -0.79438,-4.25906 4.13082,2.89614 4.76637,-1.87396 -0.63552,-5.79232 3.81306,2.21471 2.85982,-3.06652 -1.11214,-4.59975 5.24298,-4.25906 -3.01868,-5.79228 2.54202,-4.94049 -2.70092,-3.5776 0.31766,-6.81446 -2.2243,-0.68143 0.31765,-4.94048 -5.56073,-2.72579 -1.74765,-5.45161 -5.56073,-0.17049 -6.19625,-3.91829 -4.13084,3.23687 -6.19625,-2.7258 -2.54207,4.42941 -6.67286,-1.87399 -0.95328,4.77013 -10.64482,3.91833 2.38314,4.42937 -4.28969,4.59975 1.11215,3.23687 -1.58877,3.74795 2.38317,4.77014 -1.27102,2.04434 1.27102,7.49593 0.31765,5.45156 6.51399,-0.51108 v 6.3034 l 6.35514,3.74795 3.4953,-1.87396 0.31767,3.40725 2.85982,0.85181 2.70091,-3.57761 1.11216,4.25907 z"
       id="path16" />
    <path
       id="path5"
       d="m 463.73919,350.06898 c 0,5.77976 -0.85534,13.40887 -4.2189,21.64428 -2.45911,6.0209 -6.20322,12.1948 -11.54465,17.72639 -4.63793,4.803 -10.3988,9.02393 -17.18244,11.99533 -6.2996,2.75933 -13.41421,4.40638 -21.08918,4.40638 -7.4362,0 -14.56394,-1.54823 -21.08918,-4.40638 -6.51803,-2.85504 -12.33193,-6.97223 -17.18242,-11.99533 -5.00252,-5.18059 -8.89057,-11.2281 -11.54463,-17.72639 -2.84785,-6.97278 -4.21892,-14.31209 -4.21892,-21.64428 0,-7.33223 1.37107,-14.67154 4.21892,-21.64427 2.65406,-6.4983 6.54211,-12.54579 11.5446,-17.72635 4.85052,-5.02319 10.66442,-9.14034 17.18245,-11.99537 6.52524,-2.85816 13.65298,-4.40639 21.08918,-4.40639 7.67497,0 14.78958,1.64705 21.08918,4.40639 6.78364,2.9714 12.54451,7.19233 17.18244,11.99532 5.34143,5.5316 9.08554,11.7055 11.54465,17.7264 3.36356,8.23536 4.2189,15.86453 4.2189,21.64427 z m 10.15142,0 c 0,-6.93191 -1.02773,-16.11004 -5.07155,-26.011 -2.95393,-7.23251 -7.43457,-14.60645 -13.79124,-21.18938 -5.51777,-5.7142 -12.35687,-10.72125 -20.39572,-14.24244 -7.47157,-3.27269 -15.88719,-5.21473 -24.92808,-5.21473 -8.7585,0 -17.18965,1.82516 -24.92803,5.21473 -7.72363,3.38312 -14.62567,8.26701 -20.39573,14.24244 -5.9516,6.16345 -10.60429,13.38633 -13.79127,21.18938 -3.42343,8.38206 -5.07157,17.21151 -5.07157,26.011 0,8.79946 1.64814,17.62894 5.07157,26.011 3.18698,7.80306 7.83967,15.02593 13.79127,21.18938 5.77006,5.97544 12.6721,10.85933 20.39573,14.24244 7.73838,3.38957 16.16953,5.21473 24.92803,5.21473 9.04089,0 17.45651,-1.94205 24.92808,-5.21473 8.03885,-3.52119 14.87795,-8.52827 20.39572,-14.24244 6.35667,-6.58294 10.83731,-13.95688 13.79124,-21.18942 4.04382,-9.90092 5.07155,-19.07907 5.07155,-26.01096 z"
       style="display:inline;fill:#000000;fill-rule:nonzero;stroke:none;stroke-width:10.5119;stroke-dasharray:none;stroke-opacity:1" />
    <path
       id="path15"
       style="display:inline;fill:#5f5f5f;fill-opacity:1;stroke:#5f5f5f;stroke-width:1.86805;stroke-dasharray:none;stroke-opacity:1"
       d="m 448.91217,382.37259 -79.83333,-65.17073 m 31.88606,81.84233 13.22686,-98.51391 m 12.51824,99.52435 -29.51601,-78.91566 -6.85778,-18.33529 m -28.10698,38.14254 97.5478,15.91381 m -96.13065,9.59881 91.64299,-37.63736 m -78.88854,60.62395 63.77218,-83.35794 m 16.00273,44.58375 c 0,4.9544 -0.73586,11.49518 -3.62978,18.55562 -2.11571,5.16178 -5.33651,10.4536 -9.93046,15.19425 -3.98889,4.11621 -8.94329,7.73332 -14.77699,10.27953 -5.41775,2.36465 -11.53574,3.77581 -18.13442,3.77581 -6.39337,0 -12.52269,-1.32647 -18.13441,-3.77581 -5.60532,-2.44655 -10.6053,-5.97473 -14.77698,-10.27953 -4.30243,-4.43981 -7.64705,-9.6233 -9.93046,-15.19425 -2.45025,-5.97796 -3.62979,-12.27022 -3.62979,-18.55562 0,-6.28542 1.17954,-12.57767 3.62979,-18.55562 2.28341,-5.57095 5.62803,-10.75442 9.93046,-15.19419 4.17168,-4.30487 9.17166,-7.83304 14.77698,-10.2796 5.61172,-2.44933 11.74104,-3.77578 18.13441,-3.77578 6.59868,0 12.71667,1.41112 18.13442,3.77578 5.8337,2.54624 10.7881,6.16335 14.77699,10.27956 4.59395,4.74066 7.81475,10.03247 9.93046,15.19423 2.89392,7.0604 3.62978,13.60122 3.62978,18.55562 z m 7.99961,0 c 0,-5.86089 -0.87201,-13.62007 -4.30278,-21.99034 -2.50622,-6.11451 -6.30806,-12.34949 -11.70242,-17.91606 -4.68251,-4.83203 -10.48652,-9.06628 -17.30893,-12.04401 -6.34069,-2.76752 -13.4831,-4.41009 -21.15713,-4.41009 -7.4344,0 -14.58998,1.54372 -21.15713,4.41009 -6.55485,2.86096 -12.41231,6.99105 -17.30892,12.04401 -5.05065,5.2119 -8.99848,11.31913 -11.70242,17.91606 -2.9045,7.08615 -4.30278,14.55058 -4.30278,21.99034 0,7.43974 1.39828,14.90416 4.30278,21.99037 2.70394,6.5969 6.65177,12.70417 11.70242,17.91606 4.89661,5.05293 10.75407,9.18301 17.30889,12.04398 6.56718,2.86637 13.72276,4.41008 21.15716,4.41008 7.67403,0 14.81644,-1.64255 21.15713,-4.41008 6.82241,-2.97774 12.62642,-7.21195 17.30893,-12.04398 5.39436,-5.5666 9.1962,-11.80154 11.70242,-17.91606 3.43077,-8.3703 4.30278,-16.12948 4.30278,-21.99037 z"
       sodipodi:nodetypes="cccccccccccccssssssssssssssssssssssssssssssssss" />
    <ellipse
       style="display:inline;fill:#333333;fill-opacity:1;stroke:#000000;stroke-width:1.7375;stroke-dasharray:none;stroke-opacity:1"
       id="path17"
       cx="407.34488"
       cy="348.98489"
       rx="17.433519"
       ry="18.693588" />
    <g
       id="g24"
       style="display:inline"
       transform="matrix(3.4792708,0,0,3.7307485,-122.3562,-40.956765)">
      <path
         style="display:inline;fill:#494947;fill-opacity:1;stroke:#000000;stroke-width:0.1;stroke-dasharray:none;stroke-opacity:1"
         d="m 146.76476,85.209408 2.83118,2.37454 -0.45664,2.557195 1.18727,3.653137 -3.65314,0.821954 -6.48432,-0.456641 c 0,0 -6.38155,5.873187 -6.96276,5.776317 -0.58121,-0.09687 2.18163,-11.629215 13.53841,-14.726502 z"
         id="path23"
         sodipodi:insensitive="true" />
      <path
         style="display:inline;fill:#77776f;fill-opacity:1;stroke:#000000;stroke-width:0.1;stroke-dasharray:none;stroke-opacity:1"
         d="m 146.17443,83.888042 c 0.16145,0 1.09784,0.904105 1.09784,0.904105 l -0.47847,0.415847 c 0.90646,0.771953 1.83823,1.56078 2.8356,2.393337 l -0.48838,2.538759 1.19411,3.668459 3.29817,7.774121 2.42171,0.0969 c 0,0 -2.97063,-12.10855 -0.58121,-12.205419 2.38942,-0.09687 4.55281,-1.646764 4.55281,-1.646764 0,0 2.99394,0.429263 3.72523,0.395888 0.50774,-0.02317 -15.24523,-6.889501 -17.57741,-4.335203 z"
         id="path24"
         sodipodi:nodetypes="scccccccscscs"
         sodipodi:insensitive="true" />
      <path
         style="display:inline;fill:#acacac;fill-opacity:1;stroke:#000000;stroke-width:0.1;stroke-dasharray:none;stroke-opacity:1"
         d="m 149.75856,100.8723 -3.29353,0.3229 0.38748,1.29158 0.64579,0.0646 0.64579,0.83952 -0.12916,1.16242 h 0.71037 v 0.71037 l 2.19568,-0.51663 0.83953,0.96868 c 0,0 0.1444,2.00956 1.67905,2.29256 1.2403,0.22871 1.87279,-0.80724 1.87279,-0.80724 0,0 0.54483,-1.83123 -1.32387,-2.71231 -0.0908,-0.0428 -0.71036,-1.16242 -0.71036,-1.16242 0,0 1.04085,-1.10566 -0.19375,-2.61545 -0.36327,-0.44424 -1.19538,-2.578293 -1.19538,-2.578293 -0.63426,0.9066 -2.00139,1.457323 -3.09979,1.291579 z"
         id="path18"
         sodipodi:nodetypes="ccccccccccscscsccc"
         sodipodi:insensitive="true" />
    </g>
    <path
       style="display:inline;fill:#bababa;fill-opacity:1;stroke:#000000;stroke-width:0.360281;stroke-dasharray:none;stroke-opacity:1"
       d="m 383.67069,301.12947 c 0,0 8.52435,-5.30538 9.60415,-3.94755 1.55456,1.95497 11.99531,31.67514 11.99531,31.67514 0,0 -6.50604,5.66329 -6.9827,2.93753 -0.47663,-2.72581 -14.61676,-30.66512 -14.61676,-30.66512 z"
       id="path20"
       sodipodi:nodetypes="cscsc" />
    <ellipse
       style="display:inline;fill:#747474;fill-opacity:1;stroke:#000000;stroke-width:0.399693;stroke-dasharray:none;stroke-opacity:1"
       id="path19"
       cx="412.74548"
       cy="356.15631"
       rx="2.5230212"
       ry="2.5350204" />
    <path
       style="display:inline;fill:#c3c3c3;fill-opacity:1;stroke:#000000;stroke-width:0.360281;stroke-dasharray:none;stroke-opacity:1"
       d="m 383.24712,302.36532 c 0,0 -4.92821,-7.61688 -3.42649,-11.38382 0.10997,-0.2757 -16.34602,-36.3801 -16.34602,-36.3801 2.43242,-3.00556 6.5373,-5.0248 11.96461,-6.26411 l 14.49239,37.34378 c 0,0 2.92593,4.01225 4.75693,11.92415 0.30095,1.30072 -2.66731,-2.25102 -11.44142,4.7601 z"
       id="path22"
       sodipodi:nodetypes="cscccsc" />
    <path
       style="display:inline;fill:#929292;fill-opacity:1;stroke:#000000;stroke-width:0.360281;stroke-dasharray:none;stroke-opacity:1"
       d="m 413.1959,398.1528 -1.70033,-7.83546 0.42283,-3.6176 2.05044,3.83764 1.2712,7.34249 z"
       id="path21"
       sodipodi:nodetypes="cccccc" />
    <path
       style="display:inline;fill:#0e0e0e;fill-opacity:1;stroke:#000000;stroke-width:0.360281;stroke-dasharray:none;stroke-opacity:1"
       d="m 356.82025,253.76892 3.49535,4.94048 c 0,0 11.43922,-9.19953 16.52334,-10.56241 5.08408,-1.36289 -0.63553,-4.08869 -0.63553,-4.08869 0,0 -16.20557,1.53328 -19.38316,9.71062 z"
       id="path25"
       inkscape:label="path25"
       sodipodi:nodetypes="ccscc" />
    <g
       id="g32"
       style="display:inline"
       transform="matrix(3.4792708,0,0,3.7307485,-122.3562,-40.956765)">
      <path
         style="display:inline;fill:#767676;fill-opacity:1;stroke:#000000;stroke-width:0.1;stroke-dasharray:none;stroke-opacity:1"
         d="m 97.966251,70.520202 3.745579,6.457894 c 0,0 8.39526,-4.77884 9.17021,-4.19763 0.77495,0.58121 14.01363,0.839525 14.01363,0.839525 0,0 13.56157,-9.234789 2.71231,-10.91384 -10.84926,-1.679054 -8.53225,-4.393079 -19.17994,-2.324843 -4.23224,0.822081 -10.461789,10.138894 -10.461789,10.138894 z"
         id="path31"
         sodipodi:nodetypes="ccscssc"
         sodipodi:insensitive="true" />
      <path
         style="display:inline;fill:#fefefe;fill-opacity:1;stroke:#000000;stroke-width:0.1;stroke-dasharray:none;stroke-opacity:1"
         d="m 120.5043,71.424307 c 0,0 -10.20347,-4.133051 -9.816,-5.037156 0.38748,-0.904105 -5.68294,2.970631 -5.68294,2.970631 l 4.13305,2.195684 c 0,0 11.23673,1.549895 11.36589,-0.129159 z"
         id="path32"
         sodipodi:insensitive="true" />
    </g>
    <path
       style="display:inline;fill:#676765;fill-opacity:1;stroke:#000000;stroke-width:0.360281;stroke-dasharray:none;stroke-opacity:1"
       d="m 319.37965,213.46297 c 0,0 11.45908,-25.77926 24.49097,-20.9607 13.03188,4.81857 88.30814,29.64601 94.36878,46.25812 1.07239,2.93935 -47.022,-6.88294 -54.72761,-0.23877 -7.70557,6.64412 -64.13214,-25.05859 -64.13214,-25.05859 z"
       id="path30"
       sodipodi:nodetypes="csssc" />
    <g
       id="g28"
       style="display:inline"
       transform="matrix(3.4792708,0,0,3.7307485,-122.3562,-40.956765)">
      <path
         style="display:inline;fill:#7c7c7a;fill-opacity:1;stroke:#000000;stroke-width:0.1;stroke-dasharray:none;stroke-opacity:1"
         d="m 128.77306,87.538284 c 0,0 3.24216,3.561807 4.74908,2.694188 1.50692,-0.867621 2.96817,-10.320112 2.96817,-10.320112 0,0 2.19188,-2.968173 4.93174,-2.648524 2.73985,0.319651 1.1416,-3.424815 1.1416,-3.424815 l -6.66697,-4.246771 -6.07334,0.182658 -6.66698,-3.561808 -2.73985,-0.04566 -0.77629,1.643909 3.83471,7.358541 4.64969,3.487261 z"
         id="path26"
         sodipodi:insensitive="true" />
      <path
         style="display:inline;fill:#fefefe;fill-opacity:1;stroke:#000000;stroke-width:0.1;stroke-dasharray:none;stroke-opacity:1"
         d="m 138.63653,76.167894 -5.4797,-3.653136 -8.6762,-1.461254 0.18265,2.465869 10.95941,6.119003 1.64391,-2.831182 z"
         id="path27"
         sodipodi:insensitive="true" />
      <path
         style="display:inline;fill:#fefefe;fill-opacity:1;stroke:#000000;stroke-width:0.1;stroke-dasharray:none;stroke-opacity:1"
         d="m 135.6001,82.131037 c -0.16145,0 -6.52247,-4.26221 -6.52247,-4.26221 0,0 3.3581,8.427551 2.61544,8.685866 -0.74266,0.258318 2.09882,0.904105 2.09882,0.904105 0,0 2.42171,-5.230892 1.80821,-5.327761 z"
         id="path28" />
    </g>
    <path
       style="display:inline;fill:#3e3e3e;fill-opacity:1;stroke:#000000;stroke-width:0.360281;stroke-dasharray:none;stroke-opacity:1"
       d="m 99.073452,226.1117 -18.087348,-9.7576 -21.570011,0.24102 0.449364,9.15524 -15.952819,-1.44555 -0.224692,4.09577 8.762806,-0.241 -3.594989,4.81856 h -5.617199 l -1.123434,6.74597 6.066568,-1.20466 c 0,0 -12.919533,15.90123 -10.897349,19.27424 2.022184,3.37297 6.066563,0.9637 7.527036,0.12051 1.460464,-0.84327 17.413281,-33.60943 31.343924,-32.52527 13.93063,1.0842 15.728123,0 21.794703,4.81856 6.066558,4.81857 2.471558,-3.37296 2.471558,-3.37296 z"
       id="path40"
       sodipodi:nodetypes="cccccccccccsssscc" />
    <path
       style="display:inline;fill:#3e3e3c;fill-opacity:1;stroke:#000000;stroke-width:0.360281;stroke-dasharray:none;stroke-opacity:1"
       d="m 375.10218,242.49478 23.02641,-10.36177 -15.72895,-10.73281 c 0,0 -0.63548,-11.07349 -4.13082,-10.73276 -3.49531,0.34061 -7.46726,2.55541 -7.46726,2.55541 l -19.06539,1.02216 -16.20557,-6.98482 -4.92523,0.1705 -10.77634,6.45403 9.66159,5.54135 20.9521,-0.81315 23.25836,15.96914 c 0,0 1.54415,7.91284 1.4994,7.91284 z"
       id="path29"
       sodipodi:nodetypes="cccsccccccccsc" />
    <path
       style="display:inline;fill:#777777;fill-opacity:1;stroke:#000000;stroke-width:0.360281;stroke-dasharray:none;stroke-opacity:1"
       d="m 55.147026,202.86215 c 6.09498,7.08383 12.814845,13.94431 22.468764,19.75607 0,0 22.019372,1.20466 31.90564,9.39618 9.88625,8.19157 59.09282,31.56155 58.19409,37.58477 -0.89876,6.02317 22.01936,-9.63713 22.01936,-9.63713 L 188.83616,233.46 c 0,0 -86.01294,-26.39437 -90.549108,-26.02022 -5.84188,0.48186 -31.905657,-9.63711 -43.140026,-4.57763 z"
       id="path35"
       sodipodi:nodetypes="ccssccsc" />
    <path
       style="display:inline;fill:#414141;fill-opacity:1;stroke:#000000;stroke-width:0.360281;stroke-dasharray:none;stroke-opacity:1"
       d="m 216.9155,220.63234 c 0,0 2.86709,-0.32569 10.00851,15.47783 4.34433,9.61388 -10.22658,15.66034 -10.22658,15.66034 0,0 -32.35503,-1.44559 -33.47846,0.72276 -1.12345,2.16835 -33.70315,-24.09275 -33.70315,-24.09275 0,0 -1.12344,-11.80548 5.16781,-9.15528 6.29125,2.65022 28.98469,8.91434 31.00689,8.91434 2.02218,0 26.72187,-5.98689 31.22498,-7.52724 z"
       id="path33"
       sodipodi:nodetypes="cscscssc" />
    <path
       style="display:inline;fill:#3f3e41;fill-opacity:1;stroke:#000000;stroke-width:0.360281;stroke-dasharray:none;stroke-opacity:1"
       d="m 164.12051,264.53967 18.64908,-13.25102 34.15253,0.241 5.84187,-5.54135 14.15531,13.01013 31.90564,1.20461 -43.14,34.93455 -27.86127,-19.27424 -16.85157,1.44555 v -5.30038 l -11.45908,-0.48187 z"
       id="path41" />
    <path
       style="display:inline;fill:#414141;fill-opacity:1;stroke:#000000;stroke-width:0.360281;stroke-dasharray:none;stroke-opacity:1"
       d="m 86.827977,207.92164 c 0,0 44.038773,5.30043 46.735023,11.3236 2.69626,6.02319 17.07625,0.24101 17.07625,0.24101 0,0 -3.37031,-16.14216 -8.98749,-19.75606 -5.61719,-3.61394 -59.317539,-6.98691 -59.317539,-4.57762 0,2.40927 -0.224688,14.21475 4.493756,12.76914 z"
       id="path34" />
    <path
       style="display:inline;fill:#550000;fill-opacity:1;stroke:#000000;stroke-width:0.360281;stroke-dasharray:none;stroke-opacity:1"
       d="m 54.248272,204.3077 8.088757,0.72281 1.572819,6.50504 -5.617197,0.241 z"
       id="path36" />
    <g
       id="g39"
       style="display:inline"
       transform="matrix(3.4792708,0,0,3.7307485,-122.3562,-40.956765)">
      <path
         style="fill:#2e2e2e;fill-opacity:1;stroke:#000000;stroke-width:0.1;stroke-dasharray:none;stroke-opacity:1"
         d="M 65.030992,68.001623 58.831413,62.189518 41.395099,58.637677 v 1.29158 l 3.03521,0.58121 0.968685,1.549895 -0.839526,3.164366 1.743631,0.774949 0.710369,-1.87279 1.549895,0.968685 -0.129159,0.968684 1.743633,0.839526 0.58121,-1.033264 0.839526,0.129159 1.937369,2.38942 8.976471,0.129159 2.066528,1.872787 1.614472,-0.968682 z"
         id="path37" />
      <path
         style="fill:#fdfdfd;fill-opacity:1;stroke:#000000;stroke-width:0.1;stroke-dasharray:none;stroke-opacity:1"
         d="m 46.432258,61.156257 1.549894,2.841471 h 1.097841 l 0.322895,-1.679051 -1.420736,-1.420736 z"
         id="path38" />
      <path
         style="fill:#fdfdfd;fill-opacity:1;stroke:#000000;stroke-width:0.1;stroke-dasharray:none;stroke-opacity:1"
         d="m 50.565309,61.931203 8.266104,1.356159 0.452054,2.776894 -7.168264,-0.968684 -2.131105,-2.970631 z"
         id="path39" />
    </g>
    <path
       style="display:inline;fill:#b6b6b4;fill-opacity:1;stroke:#000000;stroke-width:0.360281;stroke-dasharray:none;stroke-opacity:1"
       d="m 374.20346,107.45475 c 0,0 -23.23148,15.95308 -14.74763,25.51414 0.71207,0.80249 10.04073,8.61903 9.73866,9.59075 3.93617,10.13505 2.08554,19.49453 2.98678,29.22284 0,0 18.68668,12.30796 21.12064,7.46877 1.41935,-2.82202 -10.64709,-36.29753 -13.25658,-40.95773 -2.23888,-3.99836 -4.59069,-27.98811 -5.84187,-30.83877 z"
       id="path45"
       sodipodi:nodetypes="csccssc" />
    <path
       style="display:inline;fill:#93948e;fill-opacity:1;stroke:#000000;stroke-width:0.360281;stroke-dasharray:none;stroke-opacity:1"
       d="m 364.99124,199.97101 c 0,0 -7.4147,-22.64722 14.15532,-25.29739 21.57003,-2.65021 25.16502,6.50505 25.16502,6.50505 0,0 11.92913,21.48177 9.70483,25.57043 -2.2243,4.08868 -8.82566,9.46356 -8.82566,9.46356 0,0 -39.77823,-16.12119 -40.19951,-16.24165 z"
       id="path42"
       sodipodi:nodetypes="cscscc" />
    <path
       style="display:inline;fill:#e0e0df;fill-opacity:1;stroke:#000000;stroke-width:0.360281;stroke-dasharray:none;stroke-opacity:1"
       d="m 405.44868,216.14545 c 0,0 -6.57409,-3.66528 -4.6986,-21.49203 1.43823,-13.67036 2.39973,-15.27694 2.46261,-15.33255 0,0 12.59846,23.09024 11.28037,26.95973 -0.75065,2.20356 -4.34582,6.82478 -9.04438,9.86485 z"
       id="path43"
       sodipodi:nodetypes="cscsc" />
    <path
       style="display:inline;fill:#6f6f6d;fill-opacity:1;stroke:#000000;stroke-width:0.360281;stroke-dasharray:none;stroke-opacity:1"
       d="m 379.06324,143.37457 c 0,0 -6.35513,29.3022 10.16817,34.41303 16.52333,5.11087 16.31596,7.6073 16.31596,7.6073 0,0 -20.39938,-49.44052 -22.03558,-50.36806 -1.2114,-0.68676 -11.42665,-31.52791 -7.785,-28.79112 0.63548,0.47758 -14.29903,1.53326 -10.3271,14.6511 3.97197,13.11784 12.02843,14.81145 13.02802,16.86578 0.95325,1.95916 0.63553,5.62197 0.63553,5.62197 z"
       id="path44"
       sodipodi:nodetypes="cscssssc" />
    <path
       style="display:inline;fill:#2d2f2f;fill-opacity:1;stroke:#000000;stroke-width:0.360281;stroke-dasharray:none;stroke-opacity:1"
       d="m 302.07873,234.66462 -7.4147,18.06958 11.23438,22.40629 -3.59499,5.05949 -11.00969,0.241 -5.39254,-10.60081 -9.43685,-6.02321 -6.51594,-4.57764 -1.22176,0.96372 -31.72308,-1.26486 -13.17231,-11.95604 3.87587,-7.67957 3.79161,6.95676 c 0,0 28.42296,-16.53367 30.89453,-15.96144 2.47158,0.57218 1.36416,0.60006 1.36416,0.60006 0,0 37.09803,2.64062 37.97185,2.08693 0.87386,-0.55367 0.34942,1.67982 0.34942,1.67982 z"
       id="path46"
       sodipodi:nodetypes="cccccccccccccscscc" />
    <path
       style="display:inline;fill:#303030;fill-opacity:1;stroke:#000000;stroke-width:0.360281;stroke-dasharray:none;stroke-opacity:1"
       d="m 305.9594,275.08546 3.34306,13.37823 11.87472,0.65061 -10.70032,-19.87306 -0.30932,-10.96568 9.07812,-9.19159 -12.02714,-9.661 -2.94903,-6.02323 h -2.02219 l -0.16839,1.17452 -7.45686,18.15994 z"
       id="path47" />
    <path
       style="display:inline;fill:#0e0e0e;fill-opacity:1;stroke:#000000;stroke-width:0.360281;stroke-dasharray:none;stroke-opacity:1"
       d="m 323.43599,252.53379 -4.21026,-3.47109 -8.99646,9.2208 0.25817,11.03093 10.72429,19.80453 8.72824,10.11432 9.4037,0.53332 -0.83746,-3.99669 -12.83531,-10.29961 z"
       id="path48" />
    <ellipse
       id="path49"
       style="display:inline;fill:#000000;stroke:#000000;stroke-width:0.953247"
       cx="352.97049"
       cy="257.79367"
       rx="0.0056557176"
       ry="0.0060645062" />
    <ellipse
       id="path50"
       style="display:inline;fill:#000000;stroke:#000000;stroke-width:0.953247"
       cx="354.2063"
       cy="290.07803"
       rx="0.0056557176"
       ry="0.0060645062" />
    <path
       style="display:inline;fill:#000000;fill-opacity:1;fill-rule:nonzero;stroke:none;stroke-width:1.56268;stroke-dasharray:none;stroke-opacity:1"
       d="m 356.2539,252.49327 c -0.48804,1.06278 -1.72561,1.64601 -2.64895,4.13263 -0.78373,2.11066 -1.58839,6.58431 -2.20546,9.29198 -0.88558,3.88602 -1.241,6.9311 -1.3905,9.45207 -0.15065,2.53743 -0.0173,4.71303 0.4489,6.70707 0.45141,1.93417 1.17912,3.54063 2.02967,5.02364 0.90868,1.58438 2.17854,3.36529 3.04909,4.56547 0.24459,0.33727 0.48887,0.67008 0.7127,0.96969 1.31606,1.76178 1.91036,2.09967 2.47559,2.98102 2.06893,-2.06467 -0.21154,-1.87425 -1.19175,-3.85275 -0.17431,-0.3518 -0.38588,-0.70521 -0.60577,-1.07754 -0.84794,-1.4356 -1.93072,-2.97233 -2.88362,-4.56529 -0.8153,-1.36284 -1.52232,-2.77238 -1.9819,-4.47618 -0.47565,-1.76337 -0.66423,-3.76493 -0.52113,-6.17745 0.14161,-2.38626 0.703,-5.32814 1.62688,-9.10057 0.64356,-2.62775 1.40944,-5.41861 1.90295,-7.56576 0.58849,-2.56031 0.94626,-5.179 1.1833,-6.30803 z"
       id="path51"
       sodipodi:nodetypes="cscccssscsssssssc" />
    <path
       style="display:inline;fill:#0e0e0e;fill-opacity:1;stroke:#000000;stroke-width:0.360281;stroke-dasharray:none;stroke-opacity:1"
       d="m 357.77354,197.37922 -2.2243,-6.64412 -11.12145,1.87399 -2.156,-3.99832 22.25007,-3.35734 c -0.2839,1.45055 -0.62988,2.53605 -0.77594,4.80024 l -4.3836,0.1705 2.82008,8.73103 z"
       id="path52"
       sodipodi:nodetypes="ccccccccc" />
    <path
       style="display:inline;fill:#4a4a4a;fill-opacity:1;stroke:#000000;stroke-width:0.360281;stroke-dasharray:none;stroke-opacity:1"
       d="m 357.13802,185.62427 c 0,0 -13.08365,-24.89522 -40.99053,-20.78412 -1.73867,0.2563 -0.23834,2.72576 -0.23834,2.72576 8.33598,-5.24211 31.28533,4.55159 36.93917,18.91016 0.40289,1.02316 4.2897,-0.8518 4.2897,-0.8518 z"
       id="path53"
       sodipodi:nodetypes="cscsc" />
    <path
       style="display:inline;fill:#4a4a4a;fill-opacity:1;stroke:#000000;stroke-width:0.360281;stroke-dasharray:none;stroke-opacity:1"
       d="m 352.18406,187.20185 c 0,0 -3.81224,-33.78178 -42.01658,-26.02018 -5.79469,1.17723 -0.67407,-5.54136 -0.67407,-5.54136 0,0 35.92301,-10.01938 46.73502,31.07968 0.43989,1.67207 -4.04437,0.48186 -4.04437,0.48186 z"
       id="path54"
       sodipodi:nodetypes="cscsc" />
    <path
       style="display:inline;fill:#0e0e0e;fill-opacity:1;stroke:#000000;stroke-width:0.360281;stroke-dasharray:none;stroke-opacity:1"
       d="m 324.54747,143.5939 10.78502,-0.48185 2.02218,15.90123 -12.5825,-2.65018 z"
       id="path55" />
    <path
       style="display:inline;fill:#0e0e0e;fill-opacity:1;stroke:#000000;stroke-width:0.360281;stroke-dasharray:none;stroke-opacity:1"
       d="m 293.98995,142.63022 c 0,0 -3.3703,4.09577 -1.34812,6.74597 2.0222,2.65022 19.77253,5.30039 19.77253,5.30039 l -3.37034,6.98692 4.26907,-0.9637 2.92095,-6.50504 c 0,0 -2.92095,3.13204 -0.67407,3.13204 2.24687,0 10.78501,-15.41938 -1.7975,-10.84175 -12.5825,4.57763 -19.77252,-3.85483 -19.77252,-3.85483 z"
       id="path56" />
    <path
       style="display:inline;fill:#0e0e0e;fill-opacity:1;stroke:#000000;stroke-width:0.360281;stroke-dasharray:none;stroke-opacity:1"
       d="m 317.25074,165.23609 c -22.46873,-7.46876 -22.82505,-8.29386 -22.82505,-8.29386 -0.43619,1.50167 0.66993,3.10671 6.96533,5.05949 l 8.92171,6.80234 c 7.62303,5.95294 6.51766,-1.79762 6.93801,-3.56797 z"
       id="path57"
       sodipodi:nodetypes="ccccc" />
    <path
       style="display:inline;fill:#0e0e0e;fill-opacity:1;stroke:#000000;stroke-width:0.360281;stroke-dasharray:none;stroke-opacity:1"
       d="m 325.83905,166.54375 c 0,0 12.23361,26.06534 17.63546,25.55425 5.40184,-0.51107 1.58876,0 1.58876,0 0,0 -18.39288,-13.46456 -17.47658,-26.2357 0.159,-2.21473 -1.74764,0.68145 -1.74764,0.68145 z"
       id="path58"
       sodipodi:nodetypes="cscsc" />
    <path
       style="display:inline;fill:#0e0e0e;fill-opacity:1;stroke:#000000;stroke-width:0.360281;stroke-dasharray:none;stroke-opacity:1"
       d="m 312.2816,163.37923 2.15494,-25.56757 -10.11094,-14.93755 c 0,0 -10.11096,-6.02318 -8.98749,-8.19152 1.12341,-2.16835 -7.86407,-17.346782 -4.04438,-17.105893 3.81967,0.241004 6.74062,2.168347 6.74062,2.168347 l 10.78498,17.105886 -3.81967,4.3367 c 0,0 11.45907,16.3831 10.785,16.62403 -0.67408,0.241 -2.57643,26.13408 -2.57643,26.13408 z"
       id="path59"
       sodipodi:nodetypes="cccsscccscc" />
    <path
       style="display:inline;fill:#0e0e0e;fill-opacity:1;stroke:#000000;stroke-width:0.360281;stroke-dasharray:none;stroke-opacity:1"
       d="m 316.30634,145.41892 1.11215,-9.19955 -8.42053,-19.0805 -12.39251,-20.61376 c 0,0 -8.42051,-21.976644 -2.38316,-22.317371 6.03738,-0.340623 15.72895,20.613765 15.72895,20.613765 l 0.159,19.421226 8.57944,21.97664 -1.58881,9.02917 z"
       id="path60" />
    <path
       style="display:inline;fill:#0e0e0e;fill-opacity:1;stroke:#000000;stroke-width:0.360281;stroke-dasharray:none;stroke-opacity:1"
       d="m 339.26452,171.78248 -3.81968,21.47266 0.64596,-0.45172 3.39841,-20.93062 z"
       id="path61"
       sodipodi:nodetypes="ccccc" />
    <path
       style="display:inline;fill:#0e0e0e;fill-opacity:1;stroke:#000000;stroke-width:0.360281;stroke-dasharray:none;stroke-opacity:1"
       d="m 321.85122,162.26582 0.56172,2.77067 5.05549,1.08416 -1.68518,-3.9753 z"
       id="path62" />
    <path
       style="display:inline;fill:#717171;fill-opacity:1;stroke:#000000;stroke-width:0.360281;stroke-dasharray:none;stroke-opacity:1"
       d="m 265.62422,299.7666 13.98128,6.81442 13.02802,0.34063 2.54203,7.1552 12.07473,5.11087 -5.71961,12.26602 -2.22429,8.51808 c 0,0 -11.12144,15.67326 -15.88781,15.67326 -4.76633,0 -21.28967,2.04433 -21.28967,2.04433 0,0 -13.34577,-17.71759 -21.92517,-13.96964 -8.57943,3.74794 -12.07475,-8.17739 -5.40185,-9.54027 6.67287,-1.36288 3.49532,-4.59976 3.49532,-4.59976 0,0 0.31765,-17.03615 -5.40185,-13.2882 -5.71965,3.74798 6.03737,-18.5694 11.43922,-13.28819 5.40183,5.28122 12.86912,-2.21471 21.28965,-3.23688 z"
       id="path63" />
    <ellipse
       style="display:inline;fill:#9b9b9b;fill-opacity:1;stroke:#000000;stroke-width:0.360281;stroke-dasharray:none;stroke-opacity:1"
       id="path64"
       cx="258.55411"
       cy="323.95795"
       rx="17.873791"
       ry="18.569424" />
    <ellipse
       style="display:inline;fill:#9b9b9b;fill-opacity:1;stroke:#000000;stroke-width:0.360281;stroke-dasharray:none;stroke-opacity:1"
       id="path65"
       cx="261.49341"
       cy="338.77936"
       rx="1.9065378"
       ry="1.8739784" />
    <ellipse
       style="display:inline;fill:#9b9b9b;fill-opacity:1;stroke:#000000;stroke-width:0.360281;stroke-dasharray:none;stroke-opacity:1"
       id="path66"
       cx="272.29715"
       cy="325.32083"
       rx="1.5887814"
       ry="1.7036167" />
    <ellipse
       style="display:inline;fill:#9b9b9b;fill-opacity:1;stroke:#000000;stroke-width:0.360281;stroke-dasharray:none;stroke-opacity:1"
       id="path67"
       cx="243.85793"
       cy="325.66153"
       rx="1.4299034"
       ry="1.7036167" />
    <ellipse
       style="display:inline;fill:#9b9b9b;fill-opacity:1;stroke:#000000;stroke-width:0.360281;stroke-dasharray:none;stroke-opacity:1"
       id="path68"
       cx="257.99808"
       cy="310.49933"
       rx="1.5887814"
       ry="1.8739784" />
    <g
       id="g75"
       style="display:inline"
       transform="matrix(3.4792708,0,0,3.7307485,-122.3562,-40.956765)">
      <path
         style="display:inline;fill:#898989;fill-opacity:1;stroke:#5f5f5f;stroke-width:0.49389;stroke-dasharray:none;stroke-opacity:1"
         d="m 65.512015,111.68753 1.09594,0.0913 0.31965,-1.05027 0.59363,0.91328 1.50692,-0.59363 -0.22832,-1.14161 1.18727,0.77629 1.36993,-0.5023 -0.18266,-1.55259 1.09594,0.59364 0.82196,-0.82196 -0.31965,-1.23293 1.50692,-1.14161 -0.86762,-1.55258 0.73062,-1.32426 -0.77629,-0.95895 0.0913,-1.82657 -0.6393,-0.18265 0.0913,-1.32427 -1.59825,-0.73063 -0.5023,-1.46125 -1.59825,-0.0457 -1.7809,-1.05028 -1.18727,0.86762 -1.78091,-0.73063 -0.73063,1.18727 -1.91789,-0.5023 -0.27399,1.27859 -3.0595,1.05028 0.68496,1.18727 -1.23293,1.23293 0.31965,0.86762 -0.45664,1.00461 0.68496,1.2786 -0.36531,0.54797 0.36531,2.00923 0.0913,1.46125 1.87223,-0.13699 v 1.68958 l 1.82657,1.00461 1.00461,-0.5023 0.0913,0.91329 0.82196,0.22832 0.77629,-0.95895 0.31965,1.14161 z"
         id="path16-4" />
      <path
         id="path5-0"
         d="m 82.64763,104.42914 c 0,1.58561 -0.254016,3.67859 -1.252905,5.93789 -0.730294,1.65177 -1.8422,3.34552 -3.428464,4.86306 -1.37735,1.31765 -3.088183,2.47562 -5.102751,3.29079 -1.870822,0.757 -3.983684,1.20885 -6.262952,1.20885 -2.208366,0 -4.325123,-0.42474 -6.262952,-1.20885 -1.93569,-0.78324 -3.662269,-1.91275 -5.10274,-3.29079 -1.485625,-1.42125 -2.640277,-3.08032 -3.428465,-4.86306 -0.84574,-1.91291 -1.252915,-3.92638 -1.252915,-5.93789 0,-2.01153 0.407175,-4.02499 1.252915,-5.937897 0.788188,-1.782741 1.94284,-3.441825 3.428454,-4.863058 1.440482,-1.378052 3.167061,-2.507549 5.102751,-3.290798 1.937829,-0.784119 4.054586,-1.208859 6.262952,-1.208859 2.279268,0 4.39213,0.451852 6.262952,1.208859 2.014568,0.815161 3.725401,1.973132 5.102751,3.290798 1.586264,1.517524 2.69817,3.211273 3.428464,4.863058 0.998889,2.259297 1.252905,4.352277 1.252905,5.937897 z m 3.014718,0 c 0,-1.90171 -0.305213,-4.41964 -1.506124,-7.135865 -0.877244,-1.984176 -2.20788,-4.007142 -4.095648,-5.813107 -1.638639,-1.567623 -3.669678,-2.941264 -6.057014,-3.907258 -2.218863,-0.897829 -4.718091,-1.430619 -7.403004,-1.430619 -2.601054,0 -5.10489,0.500724 -7.402994,1.430619 -2.293723,0.928114 -4.343453,2.267959 -6.057014,3.907258 -1.767475,1.690884 -3.149206,3.672408 -4.095658,5.813107 -1.016671,2.299534 -1.506124,4.721805 -1.506124,7.135865 0,2.41404 0.489453,4.83632 1.506124,7.13586 0.946452,2.14068 2.328183,4.12221 4.095658,5.81309 1.713561,1.6393 3.763291,2.97915 6.057014,3.90727 2.298104,0.9299 4.80194,1.43061 7.402994,1.43061 2.684913,0 5.184141,-0.53278 7.403004,-1.43061 2.387336,-0.966 4.418375,-2.33964 6.057014,-3.90727 1.887768,-1.80596 3.218404,-3.82893 4.095648,-5.8131 1.200911,-2.71622 1.506124,-5.23416 1.506124,-7.13585 z"
         style="display:inline;fill:#000000;fill-rule:nonzero;stroke:none;stroke-width:3.00044;stroke-dasharray:none;stroke-opacity:1" />
      <path
         id="path15-7"
         style="display:inline;fill:#5f5f5f;fill-opacity:1;stroke:#5f5f5f;stroke-width:0.518499;stroke-dasharray:none;stroke-opacity:1"
         d="M 77.805635,112.90054 54.860215,95.431996 m 9.16458,21.937244 3.80162,-26.405944 m 3.59795,26.676784 -8.48339,-21.152784 -1.97104,-4.91464 m -8.07841,10.223844 28.03685,4.26558 m -27.62954,2.57289 26.33971,-10.088434 m -22.67387,16.249824 18.32918,-22.343504 m 4.59945,11.950364 c 0,1.32799 -0.2115,3.0812 -1.04326,4.9737 -0.60809,1.38358 -1.5338,2.80201 -2.85418,4.07271 -1.14647,1.10332 -2.57045,2.07286 -4.24715,2.75535 -1.55715,0.63383 -3.31556,1.01208 -5.21213,1.01208 -1.83756,0 -3.59923,-0.35555 -5.21213,-1.01208 -1.61106,-0.65578 -3.04814,-1.60148 -4.24715,-2.75535 -1.23659,-1.19006 -2.19789,-2.57946 -2.85418,-4.07271 -0.70424,-1.60235 -1.04326,-3.28894 -1.04326,-4.9737 0,-1.68476 0.33902,-3.37135 1.04326,-4.973714 0.65629,-1.49324 1.61759,-2.88263 2.85418,-4.07269 1.19901,-1.15389 2.63609,-2.09959 4.24715,-2.75536 1.6129,-0.65653 3.37457,-1.01208 5.21213,-1.01208 1.89657,0 3.65498,0.37825 5.21213,1.01208 1.6767,0.6825 3.10068,1.65203 4.24715,2.75536 1.32038,1.2707 2.24609,2.68913 2.85418,4.07269 0.83176,1.892504 1.04326,3.645724 1.04326,4.973714 z m 2.29922,0 c 0,-1.57097 -0.25063,-3.65076 -1.23669,-5.894354 -0.72033,-1.63896 -1.81304,-3.31019 -3.36347,-4.80228 -1.34583,-1.29518 -3.014,-2.43014 -4.97487,-3.22831 -1.82242,-0.74181 -3.87527,-1.18208 -6.08091,-1.18208 -2.13677,0 -4.1934,0.41378 -6.08091,1.18208 -1.88397,0.76687 -3.5675,1.87391 -4.97487,3.22831 -1.45164,1.39702 -2.58631,3.03401 -3.36347,4.80228 -0.8348,1.899394 -1.23669,3.900184 -1.23669,5.894354 0,1.99417 0.40189,3.99495 1.23669,5.89436 0.77716,1.76825 1.91183,3.40526 3.36347,4.80227 1.40737,1.3544 3.0909,2.46144 4.97486,3.2283 1.88752,0.76831 3.94415,1.18209 6.08092,1.18209 2.20564,0 4.25849,-0.44027 6.08091,-1.18209 1.96087,-0.79816 3.62904,-1.93311 4.97487,-3.2283 1.55043,-1.49209 2.64314,-3.16332 3.36347,-4.80227 0.98606,-2.2436 1.23669,-4.32339 1.23669,-5.89436 z"
         sodipodi:nodetypes="cccccccccccccssssssssssssssssssssssssssssssssss" />
    </g>
    <path
       id="path77"
       style="display:inline;fill:#4f4f4f;fill-opacity:1;stroke:#000000;stroke-width:0.360281;stroke-dasharray:none;stroke-opacity:1"
       d="m 84.539004,276.47874 c -3.749582,0.12128 -9.479772,1.88455 -11.641812,4.20287 0,0 -40.490942,16.8394 -36.399756,68.18272 0.128307,1.61033 -3.144642,3.61486 -3.144642,3.61486 l 8.986226,-1.20496 c 0.218494,0.15669 1.455243,-7.06839 3.579742,-15.71252 l 15.520015,-0.18877 12.58214,14.93749 3.144648,-4.81983 c 0,0 -9.885159,-11.80494 -9.660458,-13.00956 0.224688,-1.20467 2.695143,-2.88995 2.695143,-2.88995 0.0776,0.0224 0.145985,-0.0337 0.21937,-0.05 l 3.263307,-7.78106 0.03302,-0.14699 c 2.535052,-1.80046 4.348644,-4.06935 4.348644,-4.06935 0,0 -9.501703,-8.22236 -15.858038,-12.27122 0.409216,-3.4631 2.708337,-11.81024 15.183793,-18.80876 13.516134,-7.5823 11.969588,-10.14051 7.148699,-9.98467 z m -28.449171,36.72105 c 2.550327,0.0664 5.16687,0.93831 6.866429,3.63028 l -4.971371,10.70959 -10.33649,-1.73513 0.08454,-0.3104 0.925952,0.16975 c 1.426204,-4.56001 3.068104,-8.92116 4.938995,-12.30013 0.79893,-0.11935 1.641874,-0.18616 2.491988,-0.16378 z"
       sodipodi:nodetypes="scsccccccsccccccsssccccccssc" />
    <ellipse
       style="display:inline;fill:#a1a19f;fill-opacity:1;stroke:#000000;stroke-width:0.360281;stroke-dasharray:none;stroke-opacity:1"
       id="path78"
       cx="107.38157"
       cy="345.76425"
       rx="15.093422"
       ry="15.843635" />
    <path
       id="path80"
       style="display:inline;fill:#303030;fill-opacity:1;stroke:#000000;stroke-width:0.360281;stroke-dasharray:none;stroke-opacity:1"
       d="m 268.96505,260.14351 -57.77215,46.73852 -1.90942,-2.83019 -4.27018,2.89185 2.4722,9.39478 2.69514,11.08356 9.43753,0.964 0.22476,6.02276 3.59594,5.05886 -4.49492,5.54278 4.04542,3.13095 2.91987,-3.85393 h 6.74058 c 0,0 -6.06682,-10.84283 -0.89899,-11.56559 5.1678,-0.72276 6.29105,-1.32445 6.29105,-1.32445 0,0 -2.47103,-4.09689 -1.45993,-4.33781 1.01108,-0.24101 0.45004,-11.80403 -4.26837,-9.39474 -4.71842,2.40928 -0.67421,-6.26382 -0.67421,-6.26382 0,0 5.61745,-13.37264 8.08901,-12.04756 2.29125,1.22842 5.92792,2.3525 5.99981,3.37387 0.37371,-0.89769 1.47555,-3.03291 2.20071,-2.16891 1.01111,1.20462 0.78571,-7.95074 0.78571,-7.95074 l 57.21118,0.47813 0.19763,0.12346 0.23207,-0.11935 h 0.10433 l 0.28182,4.11554 9.66124,-5.59115 c -15.18751,-11.52963 -31.747,-21.02053 -47.43796,-31.47055 z m -23.23686,42.58384 c -0.14718,0.35405 -0.20564,0.54756 -0.0466,0.24101 0.0411,-0.0791 0.0525,-0.1608 0.0466,-0.24101 z m 22.64716,-32.64543 18.8732,11.32267 10.85609,6.79011 -52.42318,0.43765 z"
       sodipodi:nodetypes="cccccccccccccscsscscscccccccccscccccc" />
    <g
       id="g74"
       style="display:inline"
       transform="matrix(3.4792708,0,0,3.7307485,-122.3562,-40.956765)">
      <path
         style="display:inline;fill:#303030;fill-opacity:1;stroke:#000000;stroke-width:0.1;stroke-dasharray:none;stroke-opacity:1"
         d="m 123.34577,90.668831 2.00195,-1.097841 c 0,0 4.52053,4.778841 2.06653,8.782735 -2.454,4.003895 -6.42492,13.041055 -11.55963,12.528315 -5.01019,-0.5003 -24.494272,0.42281 -26.809418,-1.01396 -5.976926,-3.70926 0.478208,-5.68786 1.643912,-5.4797 0,0 19.544276,3.74446 20.274906,4.2011 0.73063,0.45665 6.60194,1.09785 8.53931,-2.55086 1.93737,-3.64871 5.5215,-8.169236 5.5215,-8.169236 l 0.67808,-3.132079 z"
         id="path69"
         sodipodi:nodetypes="ccssscssccc" />
      <path
         style="fill:#dfdad6;fill-opacity:1;stroke:#000000;stroke-width:0.1;stroke-dasharray:none;stroke-opacity:1"
         d="m 59.63311,99.971441 c 0,0 4.072256,-6.47256 2.746901,-7.086668 l 20.862241,9.666587 c 0,0 1.069939,3.19163 -1.381562,4.45919 -0.293676,0.15185 -22.853221,-7.137534 -22.22758,-7.039109 z"
         id="path72"
         sodipodi:nodetypes="cscsc" />
      <path
         style="fill:#dfdad6;fill-opacity:1;stroke:#000000;stroke-width:0.1;stroke-dasharray:none;stroke-opacity:1"
         d="m 82.531886,104.06896 c 0,0 6.264155,2.87376 6.68392,2.61545 0.419761,-0.25832 0.24217,-0.6135 0.24217,-0.6135 0,0 -6.749314,-2.46168 -6.796934,-2.454 -0.04455,0.007 -0.129156,0.45205 -0.129156,0.45205 z"
         id="path73"
         sodipodi:nodetypes="cscsc" />
      <path
         style="display:inline;fill:#dfdad6;fill-opacity:1;stroke:#000000;stroke-width:0.1;stroke-dasharray:none;stroke-opacity:1"
         d="m 81.780446,105.81392 c 0,0 6.264155,2.87376 6.68392,2.61545 0.419761,-0.25832 0.24217,-0.6135 0.24217,-0.6135 0,0 -6.749314,-2.46168 -6.796934,-2.454 -0.04455,0.007 -0.129156,0.45205 -0.129156,0.45205 z"
         id="path73-6"
         sodipodi:nodetypes="cscsc" />
      <path
         style="fill:#343434;fill-opacity:1;stroke:#000000;stroke-width:0.1;stroke-dasharray:none;stroke-opacity:1"
         d="m 62.383256,92.882535 c 0,0 -4.827275,-1.664784 -5.408488,-0.986704 -0.58121,0.678079 -1.104565,6.738641 -0.259823,6.92151 0.843765,0.182658 2.843006,1.15429 2.910973,1.15429 0,0 4.156045,-6.411157 2.757338,-7.089096 z"
         id="path74"
         sodipodi:nodetypes="csscc" />
    </g>
    <ellipse
       style="display:inline;fill:#b0b0b0;fill-opacity:1;stroke:#000000;stroke-width:0.360281;stroke-dasharray:none;stroke-opacity:1"
       id="path70"
       cx="311.85779"
       cy="310.24377"
       rx="5.2429786"
       ry="5.5367541" />
    <ellipse
       style="display:inline;fill:#b6b6b6;fill-opacity:1;stroke:#000000;stroke-width:0.311286;stroke-dasharray:none;stroke-opacity:1"
       id="path71"
       cx="298.19427"
       cy="297.46664"
       rx="4.9488802"
       ry="5.1362176" />
    <path
       style="display:inline;fill:#cccbc9;fill-opacity:1;stroke:#000000;stroke-width:0.360281;stroke-dasharray:none;stroke-opacity:1"
       d="m 120.9805,318.50748 c 0,0 24.99649,13.1306 26.79399,12.64873 1.7975,-0.48187 -1.1796,-20.84025 -1.1796,-20.84025 h 19.54779 l 30.55753,-25.0565 -6.29125,-6.26415 -14.1553,16.62403 -3.59503,-3.85484 8.38285,-14.50697 -0.0992,-5.32377 -2.94722,0.0746 -5.6322,10.72198 -1.11215,-5.45158 -2.06544,1.7036 -0.47663,4.42941 -3.65419,1.02219 -1.4299,-2.04433 -14.61679,2.5554 c 0,0 -3.81307,9.36989 -1.4299,9.71062 2.38317,0.34062 2.70092,-0.34062 2.70092,-0.34062 l -0.31775,5.62194 c 0,0 -9.69156,-2.55542 -10.64484,-1.19254 -0.95327,1.36288 -3.81308,10.05135 -2.06542,10.05135 1.74768,0 -16.27018,9.71174 -16.27018,9.71174 z"
       id="path79"
       sodipodi:nodetypes="csccccccccccccccccsccsscc" />
    <path
       style="display:inline;fill:#131313;fill-opacity:1;stroke:#000000;stroke-width:0.35581;stroke-dasharray:none;stroke-opacity:1"
       d="m 208.45107,317.14311 c -3.09884,0 -15.1843,-0.68153 -15.1843,-0.68153 v -3.06687 c 0,0 -7.48298,-17.83841 -8.57861,-17.47698 -1.09557,0.36151 -17.47491,14.2766 -17.47491,14.2766 l -1.86253,0.0601 c 0,0 13.03774,20.30051 10.62737,30.782 -2.41033,10.4816 23.55554,-5.06001 23.55554,-5.06001 0,0 -1.42428,-11.08394 -3.61549,-10.96347 -2.19121,0.12051 13.69511,-0.12051 13.36642,-1.32525 -0.32879,-1.20481 -0.83349,-6.54474 -0.83349,-6.54474 z"
       id="path81" />
    <path
       style="display:inline;fill:#b1b1b1;fill-opacity:1;stroke:#000000;stroke-width:0.360281;stroke-dasharray:none;stroke-opacity:1"
       d="m 187.03866,298.99235 18.87375,-17.58776 7.07764,5.0595 -23.21028,18.62627 z"
       id="path82" />
    <path
       style="display:inline;fill:#0e0e0e;fill-opacity:1;stroke:#000000;stroke-width:0.360281;stroke-dasharray:none;stroke-opacity:1"
       d="m 324.79733,308.7731 c 1.53091,-1.76505 5.32074,-8.09636 5.0303,-9.38925 -0.0992,-0.44182 3.33342,0.12578 3.33342,0.12578 0,0 -9.76782,15.59498 -9.76507,14.842 0.008,-2.23748 -0.46069,-3.43162 -0.46069,-3.43162 z"
       id="path83"
       sodipodi:nodetypes="sscscs" />
    <path
       style="display:inline;fill:#0e0e0e;fill-opacity:1;stroke:#000000;stroke-width:0.360281;stroke-dasharray:none;stroke-opacity:1"
       d="m 252.59623,284.26365 12.86912,-0.17049 -0.159,-5.79229 0.159,-5.11087 z"
       id="path84" />
    <path
       style="display:inline;fill:#0e0e0e;fill-opacity:1;stroke:#000000;stroke-width:0.360281;stroke-dasharray:none;stroke-opacity:1"
       d="m 265.46535,274.89376 2.22431,5.62194 5.71959,-0.34061 0.15902,6.47375 6.83175,0.51107 1.42992,-8.51809 -13.46492,-7.85792 -2.82009,2.34246 z"
       id="path85"
       sodipodi:nodetypes="ccccccccc" />
    <path
       style="display:inline;fill:#0e0e0e;fill-opacity:1;stroke:#000000;stroke-width:0.360281;stroke-dasharray:none;stroke-opacity:1"
       d="m 267.81161,280.7841 2.15851,-0.1101 -0.056,5.29332 -7.9343,1.51259 -0.48615,-3.72731 h 5.40184 z"
       id="path86"
       sodipodi:nodetypes="ccccccc" />
    <path
       style="display:inline;fill:#0e0e0e;fill-opacity:1;stroke:#000000;stroke-width:0.360281;stroke-dasharray:none;stroke-opacity:1"
       d="m 281.23894,283.09112 h 4.7746 l -0.44937,3.67416 -0.056,0.96368 10.50414,0.18056 -14.26766,-9.15525 z"
       id="path87" />
    <path
       style="display:inline;fill:#0e0e0e;fill-opacity:1;stroke:#000000;stroke-width:0.360281;stroke-dasharray:none;stroke-opacity:1"
       d="m 262.53369,287.60849 10.72886,-2.52971 v 3.01158 z"
       id="path88" />
    <path
       style="display:inline;fill:#0e0e0e;fill-opacity:1;stroke:#000000;stroke-width:0.360281;stroke-dasharray:none;stroke-opacity:1"
       d="m 252.47894,284.35599 -4.66229,3.55368 6.96533,-0.18057 0.11242,-4.09579 z"
       id="path89" />
    <path
       style="display:inline;fill:#0e0e0e;fill-opacity:1;stroke:#000000;stroke-width:0.360281;stroke-dasharray:none;stroke-opacity:1"
       d="m 257.25355,283.99459 0.11242,3.67415 1.96599,-0.1205 -0.16839,-3.67416 z"
       id="path90" />
    <path
       style="display:inline;fill:#0e0e0e;fill-opacity:1;stroke:#000000;stroke-width:0.360281;stroke-dasharray:none;stroke-opacity:1"
       d="m 254.50114,286.58455 3.70732,-0.30107 -0.11241,1.62627 -3.93203,-0.0601 z"
       id="path91" />
    <path
       style="display:inline;fill:#0e0e0e;fill-opacity:1;stroke:#000000;stroke-width:0.360281;stroke-dasharray:none;stroke-opacity:1"
       d="m 258.15227,286.22315 7.41472,-0.12051 -0.22477,1.80699 -7.30235,-0.24101 z"
       id="path92" />
    <path
       style="display:inline;fill:#0e0e0e;fill-opacity:1;stroke:#000000;stroke-width:0.360281;stroke-dasharray:none;stroke-opacity:1"
       d="m 272.70081,286.40388 13.70597,0.72274 -0.52558,0.71463 c 0,0 -12.9486,0.0639 -13.14719,0.0639 -0.19868,0 -0.0348,-1.50126 -0.0348,-1.50126 z"
       id="path93" />
    <path
       style="display:inline;fill:#0e0e0e;fill-opacity:1;stroke:#000000;stroke-width:0.360281;stroke-dasharray:none;stroke-opacity:1"
       d="m 276.23964,304.7746 5.1678,-11.08268 -31.00688,-0.48187 0.89877,10.60085 14.82938,-5.78227 z"
       id="path94" />
    <path
       style="display:inline;fill:#0e0e0e;fill-opacity:1;stroke:#000000;stroke-width:0.360281;stroke-dasharray:none;stroke-opacity:1"
       d="m 281.40744,298.51048 c 0.89876,0 8.76283,1.20462 8.76283,1.20462 l -1.34812,5.0595 4.49376,1.44555 2.69626,7.70971 3.81969,-3.85484 -0.22476,5.05949 9.52098,1.1487 c -2.10834,-1.98341 -2.59199,-3.29179 -3.24671,-5.54744 -0.85635,-2.63405 2.5218,-6.3542 3.65284,-6.72527 1.07431,-0.35256 -5.88274,-8.63209 -5.88274,-8.63209 0,0 1.74134,6.02322 -3.2018,7.95064 -5.17772,2.01885 -8.4851,-3.13354 -8.03259,-5.8425 0.32391,-1.93846 0.61788,-3.31276 0.61788,-3.31276 l -10.89733,-0.54209 z"
       id="path95"
       sodipodi:nodetypes="cccccccccscssccc" />
    <path
       style="display:inline;fill:#0e0e0e;fill-opacity:1;stroke:#000000;stroke-width:0.360281;stroke-dasharray:none;stroke-opacity:1"
       d="m 190.63371,294.99646 c 0,0 1.74768,6.81447 3.33645,6.89964 1.58878,0.0851 2.06544,-1.87399 2.06544,-1.87399 0,0 -2.30373,3.06652 -2.30373,0.51111 0,-2.55544 -2.14486,-6.55895 -2.14486,-6.55895 z"
       id="path96" />
    <path
       style="display:inline;fill:#0e0e0e;fill-opacity:1;stroke:#000000;stroke-width:0.360281;stroke-dasharray:none;stroke-opacity:1"
       d="m 193.8113,291.84476 c 0,0 2.85979,8.09217 3.81308,7.83662 0.95328,-0.25556 1.03271,-1.7036 1.03271,-1.7036 l -0.79438,0.59627 c 0,0 -3.45562,-6.89964 -3.01869,-6.98485 0.4369,-0.0851 -1.07245,-0.34061 -1.03272,0.25556 z"
       id="path97" />
    <path
       style="display:inline;fill:#0e0e0e;fill-opacity:1;stroke:#000000;stroke-width:0.360281;stroke-dasharray:none;stroke-opacity:1"
       d="m 197.66411,289.11896 c 0,0 1.39017,7.24038 2.97895,7.28298 1.58877,0.0425 -0.63553,1.02215 -0.63553,1.02215 0,0 -4.44859,-8.04957 -3.53504,-8.09218 0.91356,-0.0425 1.31075,-0.93698 1.19162,-0.21303 z"
       id="path98" />
    <path
       style="display:inline;fill:#0e0e0e;fill-opacity:1;stroke:#000000;stroke-width:0.360281;stroke-dasharray:none;stroke-opacity:1"
       d="m 198.97486,287.37278 c 0,0 2.66119,8.21992 3.45557,8.04957 0.79439,-0.1705 0.71496,-1.14992 0.71496,-1.14992 0,0 -3.73364,-7.07002 -3.25698,-7.24038 0.47662,-0.1705 -0.91355,-0.68145 -0.91355,0.34063 z"
       id="path99" />
    <path
       style="display:inline;fill:#0e0e0e;fill-opacity:1;stroke:#000000;stroke-width:0.360281;stroke-dasharray:none;stroke-opacity:1"
       d="m 201.67578,285.45619 c 0,0 3.25698,7.87923 3.69391,7.79405 0.43692,-0.0851 0.79438,-1.40548 0.79438,-1.40548 0,0 -4.32943,-7.66629 -4.0514,-7.75145 0.278,-0.0851 -1.11215,0.46851 -0.43689,1.36288 z"
       id="path100" />
    <path
       style="display:inline;fill:#0e0e0e;fill-opacity:1;stroke:#000000;stroke-width:0.360281;stroke-dasharray:none;stroke-opacity:1"
       d="m 203.86035,283.15632 c 0,0 3.6939,8.13475 4.25,8.04959 0.55605,-0.0851 0.87381,-1.57584 0.87381,-1.57584 0,0 -4.64719,-6.98486 -4.25,-7.1126 0.39719,-0.12757 -1.62847,0.42591 -1.15185,0.72403 0.47663,0.2981 0,-0.51107 0.278,-0.0851 z"
       id="path101" />
    <ellipse
       style="display:inline;fill:#0e0e0e;fill-opacity:1;stroke:#000000;stroke-width:0.360281;stroke-dasharray:none;stroke-opacity:1"
       id="path102"
       cx="165.05437"
       cy="300.61838"
       rx="2.7009284"
       ry="3.2368715" />
    <ellipse
       style="display:inline;fill:#0e0e0e;fill-opacity:1;stroke:#000000;stroke-width:0.360281;stroke-dasharray:none;stroke-opacity:1"
       id="path103"
       cx="137.0918"
       cy="318.84705"
       rx="3.0186849"
       ry="3.7479568" />
    <ellipse
       style="display:inline;fill:#c3c3c3;fill-opacity:1;stroke:#000000;stroke-width:0.305492;stroke-dasharray:none;stroke-opacity:1"
       id="path104"
       cx="241.5663"
       cy="199.80864"
       rx="10.343208"
       ry="1.5992546"
       transform="matrix(0.99811981,-0.0612931,0.12126689,0.99261994,0,0)" />
    <path
       style="display:inline;fill:#c3c3c3;fill-opacity:1;stroke:#000000;stroke-width:0.360281;stroke-dasharray:none;stroke-opacity:1"
       d="m 209.7321,323.80792 -13.93062,0.48181 3.14562,20.7198 7.63939,7.22784 17.07623,2.89114 -2.24685,-8.67339 -2.74013,-1.54271 4.84656,-5.50445 -3.7635,-5.21006 -0.25259,-6.02319 -9.49306,-0.90348 z"
       id="path105" />
    <rect
       style="display:inline;fill:#1a1a1a;fill-opacity:1;stroke:#000000;stroke-width:0.360281;stroke-dasharray:none;stroke-opacity:1"
       id="rect105"
       width="10.1682"
       height="7.1551905"
       x="202.70847"
       y="337.24612" />
  </g>
</svg>
